<?xml version="1.0" encoding="UTF-8" standalone="no"?>
<!-- License Agreement at http://iconmonstr.com/license/ -->

<svg
   xmlns:dc="http://purl.org/dc/elements/1.1/"
   xmlns:cc="http://creativecommons.org/ns#"
   xmlns:rdf="http://www.w3.org/1999/02/22-rdf-syntax-ns#"
   xmlns:svg="http://www.w3.org/2000/svg"
   xmlns="http://www.w3.org/2000/svg"
   xmlns:sodipodi="http://sodipodi.sourceforge.net/DTD/sodipodi-0.dtd"
   xmlns:inkscape="http://www.inkscape.org/namespaces/inkscape"
   version="1.1"
   x="0px"
   y="0px"
   width="512px"
   height="512px"
   viewBox="0 0 512 512"
   style="enable-background:new 0 0 512 512;"
   xml:space="preserve"
   id="svg2"
   inkscape:version="0.48.4 r9939"
   sodipodi:docname="iconmonstr-id-card-man.svg"><metadata
     id="metadata9"><rdf:RDF><cc:Work
         rdf:about=""><dc:format>image/svg+xml</dc:format><dc:type
           rdf:resource="http://purl.org/dc/dcmitype/StillImage" /><dc:title></dc:title></cc:Work></rdf:RDF></metadata><defs
     id="defs7"><clipPath
       clipPathUnits="userSpaceOnUse"
       id="clipPath3007"><rect
         style="opacity:0.69120023;fill:#1c241f;fill-opacity:1;stroke:#000000;stroke-width:1.77165353;stroke-linecap:square;stroke-linejoin:round;stroke-miterlimit:4;stroke-opacity:1;stroke-dasharray:none"
         id="rect3009"
         width="259.18195"
         height="311.63541"
         x="40.111488"
         y="98.543129" /></clipPath></defs><sodipodi:namedview
     pagecolor="#ffffff"
     bordercolor="#666666"
     borderopacity="1"
     objecttolerance="10"
     gridtolerance="10"
     guidetolerance="10"
     inkscape:pageopacity="0"
     inkscape:pageshadow="2"
     inkscape:window-width="1338"
     inkscape:window-height="750"
     id="namedview5"
     showgrid="false"
     inkscape:zoom="1.1343384"
     inkscape:cx="129.93532"
     inkscape:cy="256"
     inkscape:window-x="28"
     inkscape:window-y="18"
     inkscape:window-maximized="1"
     inkscape:current-layer="svg2" /><path
     transform="matrix(0.73594131,0,0,0.82864249,115.51991,10.01446)"
     inkscape:connector-curvature="0"
     id="id-card-2-icon"
     d="M 462.191,141.051 H 301.135 v 48.97 h 161.057 v -48.97 z m 0,92.498 H 301.135 v 48.972 h 161.057 v -48.972 z m 0,92.498 H 356.635 v 48.971 H 462.192 V 326.047 z M 288.967,375.018 H 49.856 c 0,-16.344 -2.652,-38.727 31.627,-46.55 29.532,-6.74 65.56,-24.162 54.954,-46.843 -6.78,10.878 -27.917,17.627 -44.357,7.975 47.321,-11.942 -23.263,-93.938 38.585,-139.899 22.216,-17.054 54.923,-16.86 77.494,0 61.847,45.962 -8.737,127.957 38.585,139.899 -16.44,9.652 -37.546,3.193 -44.357,-7.975 -10.605,22.678 25.391,40.096 54.954,46.843 34.279,7.824 31.626,30.206 31.626,46.55 z"
     clip-path="url(#clipPath3007)"
     style="fill:#2d3543;fill-opacity:1" /><path
     id="id-card-icon"
     d="m 252.68053,290.45864 c -34.166,-7.885 -65.97,-14.783 -50.569,-43.82 46.886,-88.391 12.428,-135.662 -37.078,-135.662 -50.484,0 -84.090998,49.085 -37.081,135.662 15.864,29.213 -17.134,36.105 -50.567998,43.82 -34.150996,7.875 -31.523996,25.879 -31.523996,58.553 H 284.20753 c -0.001,-32.674 2.624,-50.678 -31.527,-58.553 z m 205.132,-175.414 h -161.057 v 48.97 h 161.057 v -48.97 z m 0,92.498 h -161.057 v 48.971 h 161.057 v -48.971 z m 0,92.498 h -105.557 v 48.971 h 105.557 v -48.971 z"
     inkscape:connector-curvature="0"
     style="fill:#335fb4;fill-opacity:1;stroke:none" /></svg>